<svg version="1" xmlns="http://www.w3.org/2000/svg" width="533.333" height="533.333" viewBox="0 0 400.000000 400.000000"><path d="M0 200v200h400V0H0v200zM164.8 54.5c14.8 6.8 24.7 25.7 27.4 52.5 1 9.7.9 13-.5 20.9-4 23.6-17.4 37.3-36.7 37.5-13.5.2-27.6-10.7-35.9-27.6-6.1-12.4-7.6-19.1-7.5-33.8 0-11.3.3-13.3 3.1-21.2 4.7-13.5 14.2-25.3 23.3-29 8.4-3.5 18.2-3.2 26.8.7zm99-.1c10.1 5.1 20.4 19.7 23.7 33.7 2 8.5 1.9 25.5-.1 33.8-4.2 17.3-15.5 33.1-28.2 39.3-9.2 4.6-19.6 5.1-27.4 1.6-10.6-4.9-18.6-15.8-22.4-30.8-2.2-8.8-1.5-30.1 1.5-41.5 5.4-20.5 16.2-34.3 30.1-38.2 6.6-1.9 16.8-1 22.8 2.1zM94.6 135.5c7.1 3.5 16 11.8 20.3 18.9 1.9 3.1 5 10.3 7 15.9 3.4 9.7 3.6 10.9 3.6 23.2 0 11.4-.3 13.7-2.4 18.9-2.7 6.9-8.7 13.8-14.6 16.9-3.1 1.7-5.8 2.2-12 2.2-10.8 0-17.3-3-26.5-12.4-7.5-7.6-14.7-20.6-17.5-31.6-3.2-12.3-1.5-28.7 4-39.4 7.4-14.4 23.5-19.8 38.1-12.6zm237.5.1c6.3 3.4 10.9 9.1 13.9 17.1 6.3 16.9 4.9 32.6-4.7 51.8-4.4 8.6-16.4 21-23.8 24.4-10.5 4.9-23.2 3.5-31.2-3.4-9-7.7-13.9-24.7-11.5-40 3.2-20.3 12.4-37.6 24.7-46.1 11.7-8 22.4-9.3 32.6-3.8zm-109 56.4c14.7 4.8 23.6 10.7 37.4 24.5 26.4 26.2 38.9 53.8 39 86 0 18.3-3 26.5-13 35.3-9.7 8.6-23.1 12.7-38.5 11.9-12.3-.6-15.1-1.6-26-8.8-11.3-7.5-16.4-9.9-21.5-9.9-4.9 0-13.3 3.9-23.5 10.8-8.9 6-16.1 8.2-27.2 8.2-10.2 0-16.7-1.5-25.7-5.7-11.9-5.7-19.3-14.5-22.1-26.5-1.3-5.7-1.3-24.9.1-32.4 5.7-32.4 28.4-66.5 56.2-84.5 19.7-12.8 43.4-16.1 64.8-8.9z"/></svg>